<?xml version="1.0" encoding="UTF-8"?>
<svg id="Layer_1" data-name="Layer 1" xmlns="http://www.w3.org/2000/svg" viewBox="0 0 324.26 94.57">
  <defs>
    <style>
      .cls-1 {
        fill: #1570ef;
      }

      .cls-2 {
        fill: #1570ef;
      }
    </style>
  </defs>
  <path class="cls-2" d="M60.19,13.37c-1.22,0-2.21-.99-2.21-2.21s.99-2.21,2.21-2.21,2.21.99,2.21,2.21-.99,2.21-2.21,2.21ZM103.16,76.85l-4.37-5.17c4.68-8.54,6.34-18.2,4.82-28.05-2.75-17.75-15.59-31.45-32.65-35.6C69.59,3.39,65.3,0,60.22,0,54.05,0,49.02,5.02,49.02,11.2s5.02,11.2,11.2,11.2c4.06,0,7.6-2.17,9.57-5.41,13.06,3.58,22.8,14.28,24.93,28.02,1.29,8.29-.25,16.4-4.44,23.45-1.48,2.48-1.23,5.62.62,7.81l3.82,4.52c-4.25,2.24-9.97,1-12.63.21-.12-.04-.28-.08-.28-.08-1.68-.5-3.4-.39-5.12.54-.06.04-.13.08-.21.12-5.98,3.15-12.72,4.49-19.54,3.86-14.36-1.31-26.37-11.5-30.31-25.23,4.93-1.95,9.71-6.59,11.52-16.91l3.33-22.98c.7-4.72-2.58-9.13-7.3-9.83l-5.5-.81c-1.23-.18-2.37.67-2.55,1.89l-.66,4.45c-.18,1.23.67,2.37,1.9,2.55l5.17.76-3.27,22.54c-1.52,8.67-5.11,10.26-8.49,10.55-3.38-.29-6.97-1.88-8.47-10.42l-3.29-22.67,5.18-.82c1.22-.19,2.05-1.33,1.87-2.55l-.66-4.45c-.18-1.24-1.34-2.09-2.58-1.89l-5.46.86c-2.29.34-4.31,1.55-5.69,3.4C.33,15.74-.24,18.02.09,20.3l3.36,23.12c2.11,12.03,8.35,16.31,14.12,17.57,4.43,18.11,19.92,31.69,38.57,33.39,1.37.13,2.73.19,4.09.19,6.94,0,13.73-1.62,19.92-4.78,5.29,1.48,15.17,2.95,22.4-3.58,2.71-2.45,2.98-6.56.61-9.36Z"/>
  <path class="cls-1" d="M172.58,11.91h-9.38v18.1c-3.43-2.33-7.57-3.69-12.02-3.69-11.84,0-21.45,9.6-21.45,21.45s9.6,21.45,21.45,21.45,21.41-9.6,21.41-21.45V11.91ZM151.18,59.84c-6.65,0-12.07-5.41-12.07-12.07s5.41-12.07,12.07-12.07,11.6,4.97,12.02,11.24v1.55h0c-.38,6.32-5.62,11.34-12.03,11.34ZM255.05,25.35c-11.84,0-21.4,9.6-21.4,21.45v35.86h9.38v-18.1c3.43,2.33,7.57,3.69,12.02,3.69,11.84,0,21.45-9.6,21.45-21.45s-9.6-21.45-21.45-21.45ZM255.05,58.86c-6.37,0-11.58-4.96-12.02-11.21v-1.58h0c.38-6.32,5.62-11.34,12.03-11.34s12.07,5.41,12.07,12.07-5.41,12.07-12.07,12.07ZM302.81,25.35c-11.84,0-21.45,9.6-21.45,21.45,0,11.84,9.6,21.45,21.45,21.45s21.45-9.6,21.45-21.45-9.6-21.45-21.45-21.45ZM302.81,58.86c-6.65,0-12.07-5.41-12.07-12.07s5.41-12.07,12.07-12.07,12.07,5.41,12.07,12.07-5.41,12.07-12.07,12.07ZM179.77,26.22h9.78v41.8h-9.78V26.22ZM206.43,37.45c0,1.16.52,2.06,1.57,2.7,1.04.64,2.39,1.19,4.05,1.65,1.65.46,3.4.97,5.22,1.52,1.83.55,3.57,1.31,5.22,2.26,1.65.96,3,2.24,4.05,3.83,1.04,1.6,1.57,3.67,1.57,6.23,0,4.06-1.42,7.29-4.27,9.67s-6.7,3.57-11.58,3.57c-2.32,0-4.56-.3-6.7-.91-2.15-.61-4.12-1.48-5.92-2.61-1.8-1.13-3.37-2.51-4.7-4.14l6.09-6.1c1.45,1.68,3.12,2.95,5.01,3.79,1.89.84,4.02,1.26,6.4,1.26,2.15,0,3.77-.32,4.88-.96,1.1-.64,1.66-1.57,1.66-2.79s-.52-2.26-1.57-2.96c-1.04-.7-2.39-1.29-4.05-1.79-1.66-.49-3.4-1-5.22-1.52-1.83-.52-3.57-1.23-5.23-2.13-1.65-.9-3-2.13-4.05-3.7-1.05-1.57-1.57-3.6-1.57-6.1,0-2.67.62-4.96,1.87-6.88,1.25-1.92,3.02-3.4,5.31-4.44,2.29-1.05,5.04-1.57,8.23-1.57,3.37,0,6.34.6,8.92,1.78,2.58,1.19,4.75,2.98,6.49,5.36l-6.09,6.1c-1.22-1.51-2.61-2.64-4.18-3.4-1.57-.75-3.37-1.13-5.4-1.13-1.92,0-3.4.29-4.44.87-1.05.58-1.57,1.42-1.57,2.53Z"/>
</svg>


