<?xml version="1.0" encoding="UTF-8"?>
<svg id="Layer_1" data-name="Layer 1" xmlns="http://www.w3.org/2000/svg" viewBox="0 0 120 120">
  <defs>
    <style>
      .logo {
        fill: #1570ef;
      }
    </style>
  </defs>
  <g transform="translate(8.42, 21.575) scale(1)">
    <path class="logo" d="M60.19,13.37c-1.22,0-2.21-.99-2.21-2.21s.99-2.21,2.21-2.21,2.21.99,2.21,2.21-.99,2.21-2.21,2.21ZM103.16,76.85l-4.37-5.17c4.68-8.54,6.34-18.2,4.82-28.05-2.75-17.75-15.59-31.45-32.65-35.6C69.59,3.39,65.3,0,60.22,0,54.05,0,49.02,5.02,49.02,11.2s5.02,11.2,11.2,11.2c4.06,0,7.6-2.17,9.57-5.41,13.06,3.58,22.8,14.28,24.93,28.02,1.29,8.29-.25,16.4-4.44,23.45-1.48,2.48-1.23,5.62.62,7.81l3.82,4.52c-4.25,2.24-9.97,1-12.63.21-.12-.04-.28-.08-.28-.08-1.68-.5-3.4-.39-5.12.54-.06.04-.13.08-.21.12-5.98,3.15-12.72,4.49-19.54,3.86-14.36-1.31-26.37-11.5-30.31-25.23,4.93-1.95,9.71-6.59,11.52-16.91l3.33-22.98c.7-4.72-2.58-9.13-7.3-9.83l-5.5-.81c-1.23-.18-2.37.67-2.55,1.89l-.66,4.45c-.18,1.23.67,2.37,1.9,2.55l5.17.76-3.27,22.54c-1.52,8.67-5.11,10.26-8.49,10.55-3.38-.29-6.97-1.88-8.47-10.42l-3.29-22.67,5.18-.82c1.22-.19,2.05-1.33,1.87-2.55l-.66-4.45c-.18-1.24-1.34-2.09-2.58-1.89l-5.46.86c-2.29.34-4.31,1.55-5.69,3.4C.33,15.74-.24,18.02.09,20.3l3.36,23.12c2.11,12.03,8.35,16.31,14.12,17.57,4.43,18.11,19.92,31.69,38.57,33.39,1.37.13,2.73.19,4.09.19,6.94,0,13.73-1.62,19.92-4.78,5.29,1.48,15.17,2.95,22.4-3.58,2.71-2.45,2.98-6.56.61-9.36Z"/>
  </g>
</svg>

